<svg width="80" height="80" viewBox="0 0 80 80" fill="none" xmlns="http://www.w3.org/2000/svg">
<g id="logo-86" clip-path="url(#clip0_35_422)">
<path id="Vector" fill-rule="evenodd" clip-rule="evenodd" d="M28.8886 23.3706C32.1776 21.173 36.0444 20 40 20V0C32.0888 0 24.3552 2.34596 17.7772 6.74122C11.1992 11.1365 6.0724 17.3836 3.0448 24.6926C0.0174026 32.0016 -0.774803 40.0444 0.7686 47.8036C2.312 55.5628 6.1216 62.6902 11.7158 68.2842C17.3098 73.8784 24.4372 77.688 32.1964 79.2314C39.9556 80.7748 47.9984 79.9826 55.3074 76.9552C62.6164 73.9276 68.8635 68.8008 73.2588 62.2228C77.654 55.6448 80 47.9112 80 40H60C60 43.9556 58.827 47.8224 56.6294 51.1114C54.4318 54.4004 51.3082 56.9638 47.6536 58.4776C43.9992 59.9914 39.9778 60.3874 36.0982 59.6156C32.2186 58.844 28.655 56.9392 25.8578 54.1422C23.0608 51.345 21.156 47.7814 20.3844 43.9018C19.6126 40.0222 20.0086 36.0008 21.5224 32.3464C23.0362 28.6918 25.5996 25.5682 28.8886 23.3706Z" fill="url(#paint0_linear_35_422)"/>
<path id="Vector_2" fill-rule="evenodd" clip-rule="evenodd" d="M60 8.6625e-06C60 2.62645 60.5173 5.22717 61.5224 7.65367C62.5275 10.0802 64.0007 12.285 65.8579 14.1421C67.715 15.9993 69.9198 17.4725 72.3463 18.4776C74.7729 19.4827 77.3736 20 80 20L80 40C74.7471 40 69.5457 38.9654 64.6926 36.9552C59.8396 34.945 55.43 31.9986 51.7158 28.2842C48.0014 24.57 45.055 20.1604 43.0448 15.3073C41.0346 10.4543 40 5.25287 40 0L60 8.6625e-06Z" fill="url(#paint1_linear_35_422)"/>
</g>
<defs>
<linearGradient id="paint0_linear_35_422" x1="76.8116" y1="8.00003" x2="-94.0455" y2="52.543" gradientUnits="userSpaceOnUse">
<stop stop-color="#007DFC"/>
<stop offset="1" stop-color="#440096"/>
</linearGradient>
<linearGradient id="paint1_linear_35_422" x1="78.4058" y1="4.00002" x2="-7.02273" y2="26.2715" gradientUnits="userSpaceOnUse">
<stop stop-color="#007DFC"/>
<stop offset="1" stop-color="#440096"/>
</linearGradient>
<clipPath id="clip0_35_422">
<rect width="80" height="80" fill="white" transform="matrix(-1 0 0 1 80 0)"/>
</clipPath>
</defs>
</svg>
